<svg width="30" height="30" viewBox="0 0 30 30" fill="none" xmlns="http://www.w3.org/2000/svg">
<path d="M19.6823 10.2462C19.1439 9.89622 18.7012 9.41756 18.3942 8.85351C18.0872 8.28947 17.9255 7.65781 17.9239 7.01562H15.1497L15.1444 18.119C15.116 18.7253 14.8523 19.2967 14.4092 19.7115C13.9661 20.1264 13.3787 20.3521 12.7718 20.3406C12.1649 20.3291 11.5864 20.0813 11.1594 19.6499C10.7324 19.2185 10.4905 18.6376 10.4851 18.0306C10.4851 16.7471 11.5312 15.7023 12.8174 15.7023C13.0575 15.7023 13.287 15.7419 13.5047 15.8091V12.9809C13.2769 12.9496 13.0473 12.9333 12.8174 12.9321C11.4643 12.9317 10.1665 13.4685 9.209 14.4245C8.2515 15.3805 7.71269 16.6776 7.71094 18.0306C7.71132 18.8507 7.90978 19.6586 8.28943 20.3855C8.66908 21.1124 9.21869 21.7369 9.89151 22.2057C10.6563 22.7402 11.5529 23.055 12.4839 23.1159C13.415 23.1768 14.3449 22.9816 15.1729 22.5513C16.0008 22.121 16.695 21.4722 17.1802 20.6752C17.6654 19.8783 17.9231 18.9636 17.9252 18.0306V12.4018C19.0122 13.1801 20.3445 13.6404 21.7837 13.6404V10.8702C21.0369 10.8719 20.306 10.655 19.681 10.2462" fill="#CACACA"/>
</svg>
